<svg width="63" height="63" viewBox="0 0 63 63" fill="none" xmlns="http://www.w3.org/2000/svg">
<path d="M38.5713 35.7839C37.5819 37.3217 36.1181 38.495 34.4018 39.126C32.6855 39.757 30.8103 39.8112 29.0604 39.2805C27.3105 38.7498 25.7813 37.6631 24.7046 36.1851C23.6279 34.7071 23.0624 32.9183 23.0939 31.09C23.1253 29.2616 23.752 27.4934 24.8788 26.0532C26.0057 24.6131 27.5713 23.5796 29.3385 23.1094C31.1056 22.6392 32.9778 22.7579 34.6714 23.4475C36.365 24.1372 37.7876 25.3601 38.7235 26.931" stroke="#0D99FF" stroke-width="1.3125" stroke-linecap="round" stroke-linejoin="round"/>
<path d="M38.7235 26.9323L44.551 23.4463C42.8133 20.5288 40.1717 18.2573 37.0267 16.9763C33.8818 15.6953 30.4049 15.4745 27.1232 16.3474C23.8415 17.2204 20.9338 19.1394 18.8409 21.8137C16.7481 24.488 15.5842 27.7717 15.5256 31.167C15.467 34.5624 16.517 37.8842 18.5164 40.6291C20.5158 43.3739 23.3556 45.3921 26.6053 46.3777C29.8549 47.3633 33.3373 47.2625 36.5246 46.0907C39.7119 44.9189 42.4302 42.7399 44.2675 39.884L38.5713 35.7838" stroke="#0D99FF" stroke-width="1.3125" stroke-linecap="round" stroke-linejoin="round"/>
<path d="M31.4995 4.59375L7.76953 17.5035V44.8245L31.4995 58.4062L55.2295 44.9203V17.2764L31.4995 4.59375Z" stroke="#0D99FF" stroke-width="1.3125" stroke-linecap="round" stroke-linejoin="round"/>
</svg>
