<svg width="63" height="63" viewBox="0 0 63 63" fill="none" xmlns="http://www.w3.org/2000/svg">
<g clip-path="url(#clip0_186_1194)">
<path d="M61.3939 28.7331L34.2665 1.60671C32.7053 0.0445078 30.1715 0.0445078 28.6079 1.60671L22.9753 7.24029L30.1208 14.3859C31.782 13.8253 33.6857 14.2013 35.0092 15.5248C36.3396 16.8566 36.7127 18.7767 36.1383 20.4432L43.025 27.3304C44.6911 26.756 46.614 27.1271 47.9439 28.46C49.8044 30.319 49.8044 33.3326 47.9439 35.1926C47.5018 35.6349 46.9769 35.9858 46.3991 36.2252C45.8213 36.4646 45.202 36.5879 44.5766 36.5879C43.9512 36.5879 43.3319 36.4646 42.7542 36.2252C42.1764 35.9858 41.6515 35.6349 41.2093 35.1926C40.5452 34.5278 40.0925 33.6815 39.9082 32.7601C39.7239 31.8387 39.8161 30.8834 40.1733 30.0143L33.7512 23.5922L33.7502 40.4944C34.2162 40.7238 34.6416 41.0277 35.0097 41.3942C36.8692 43.2532 36.8692 46.2658 35.0097 48.1288C33.1498 49.9878 30.1351 49.9878 28.2771 48.1288C26.4176 46.2663 26.4176 43.2536 28.2771 41.3942C28.723 40.9485 29.2528 40.5955 29.8359 40.3556V23.2969C29.2521 23.0581 28.7221 22.7048 28.2771 22.2579C26.8685 20.8503 26.5293 18.7831 27.2519 17.0525L20.2072 10.0079L1.60645 28.6076C0.856016 29.3583 0.434448 30.3763 0.434448 31.4377C0.434448 32.4991 0.856016 33.5171 1.60645 34.2678L28.7343 61.3942C30.2965 62.9564 32.8293 62.9564 34.394 61.3942L61.3944 34.3938C62.1447 33.6429 62.5661 32.6248 62.566 31.5634C62.5659 30.5019 62.1443 29.4839 61.3939 28.7331Z" fill="#F34F29"/>
</g>
<defs>
<clipPath id="clip0_186_1194">
<rect width="63" height="63" fill="white"/>
</clipPath>
</defs>
</svg>
