<svg width="63" height="63" viewBox="0 0 63 63" fill="none" xmlns="http://www.w3.org/2000/svg">
<g clip-path="url(#clip0_17_300)">
<path d="M57.9242 48.3534C54.4921 48.2594 51.8717 48.5803 49.6298 49.5244C48.9934 49.7936 47.9785 49.7995 47.8747 50.5973C48.2246 50.9645 48.2783 51.5123 48.5573 51.9641C49.0918 52.8274 49.9955 53.9885 50.8012 54.5983C51.6817 55.2618 52.5893 55.973 53.5333 56.5479C55.2137 57.5726 57.0884 58.1573 58.7033 59.1821C59.6571 59.7874 60.6026 60.5489 61.5334 61.2315C61.9931 61.5682 62.3027 62.0929 62.8982 62.3045V62.2085C62.5847 61.8089 62.504 61.2586 62.2155 60.8417L60.9467 59.5729C59.7064 57.927 58.1319 56.4814 56.4594 55.2815C55.1251 54.3222 52.1375 53.0282 51.5818 51.4769L51.4839 51.3789C52.4299 51.2711 53.5373 50.9291 54.4119 50.6943C55.8786 50.302 57.1903 50.4039 58.7033 50.0116L60.7528 49.4274V49.0371C59.9874 48.2525 59.4416 47.2125 58.6073 46.5013C56.4215 44.6404 54.0373 42.7829 51.5823 41.2335C50.2209 40.3741 48.5386 39.8145 47.095 39.086C46.6088 38.8419 45.7568 38.713 45.4359 38.3054C44.6784 37.3403 44.265 36.1157 43.6807 34.9891C42.4562 32.63 41.2543 30.0559 40.168 27.5738C39.4277 25.8821 38.9454 24.2131 38.0226 22.6962C33.5929 15.4133 28.825 11.0166 21.4383 6.69616C19.8658 5.77725 17.9738 5.41401 15.974 4.93905L12.7536 4.74464C12.0981 4.47148 11.4174 3.6697 10.8021 3.2794C8.35546 1.73245 2.0781 -1.63017 0.264882 2.79164C-0.878962 5.58136 1.97622 8.30365 2.99701 9.71869C3.71413 10.709 4.63108 11.8218 5.14246 12.9371C5.48108 13.6714 5.53867 14.4058 5.82709 15.181C6.53486 17.0921 7.15354 19.1721 8.07097 20.9371C8.53412 21.8309 9.04551 22.7715 9.63219 23.5713C9.99001 24.0615 10.6067 24.2791 10.7052 25.0346C10.1012 25.8787 10.0668 27.1879 9.72866 28.255C8.20387 33.0636 8.78071 39.0388 10.9975 42.5958C11.6782 43.69 13.2818 46.0313 15.4848 45.1335C17.4132 44.347 16.9825 41.9151 17.5343 39.7677C17.6593 39.2814 17.5825 38.9236 17.8266 38.5968V38.6947L19.5837 42.2055C20.8836 44.2993 23.1885 46.4871 25.144 47.9636C26.1574 48.729 26.9552 50.0515 28.2664 50.4994V50.4014H28.1685C27.9145 50.0052 27.5168 49.8418 27.1939 49.5248C26.4306 48.7752 25.581 47.8445 24.9501 46.9871C23.1718 44.5744 21.6007 41.9324 20.1704 39.1835C19.4858 37.8703 18.8917 36.4228 18.3149 35.0865C18.0919 34.5712 18.0958 33.7906 17.6322 33.5253C17.0017 34.5038 16.071 35.2962 15.5827 36.4514C14.8041 38.299 14.7022 40.5542 14.4138 42.8902C14.2425 42.9517 14.3178 42.9094 14.2179 42.9881C12.8585 42.6593 12.382 41.2615 11.8761 40.0601C10.5993 37.0262 10.3611 32.1408 11.4858 28.6458C11.7762 27.7421 13.0913 24.8968 12.5587 24.0605C12.3048 23.2282 11.4666 22.7454 10.9975 22.109C10.4167 21.3225 9.83842 20.2864 9.4363 19.3769C8.3904 17.0119 7.90412 14.3551 6.80212 11.9636C6.27548 10.8197 5.38708 9.66209 4.65667 8.6472C3.84702 7.52058 2.94189 6.68976 2.31484 5.32887C2.09188 4.84455 1.79017 4.06936 2.11895 3.57373C2.22477 3.23707 2.37292 3.0968 2.70515 2.98753C3.27018 2.55096 4.84715 3.13371 5.43531 3.37784C7.00047 4.02752 8.30575 4.64669 9.63219 5.52525C10.2666 5.94607 10.9109 6.76162 11.6797 6.98852H12.5582C13.931 7.30402 15.469 7.0845 16.7532 7.4748C19.0217 8.16485 21.0539 9.23782 22.8996 10.4028C28.5214 13.954 33.1204 19.0063 36.2654 25.0375C36.7709 26.0086 36.9904 26.9334 37.4364 27.9636C38.3341 30.0401 39.4666 32.1762 40.3604 34.2085C41.2543 36.2328 42.1235 38.2789 43.3864 39.9646C44.0499 40.851 46.6107 41.326 47.7757 41.8182C48.5928 42.1622 49.931 42.522 50.7038 42.9891C52.1803 43.8795 53.6106 44.9406 54.9971 45.9151C55.6872 46.4034 57.8173 47.4744 57.9232 48.3549L57.9242 48.3534ZM14.3139 11.1834C13.5987 11.1701 13.0933 11.2602 12.5587 11.3779V11.4758H12.6547C12.9968 12.1757 13.5987 12.6275 14.0215 13.2309L14.9961 15.2804L15.094 15.1844C15.6979 14.7577 15.9745 14.077 15.9706 13.037C15.7284 12.7811 15.694 12.4641 15.4823 12.1585C15.2057 11.7529 14.6653 11.524 14.3134 11.1839L14.3139 11.1834Z" fill="#00618A"/>
</g>
<defs>
<clipPath id="clip0_17_300">
<rect width="63" height="63" fill="white"/>
</clipPath>
</defs>
</svg>
