<svg width="63" height="63" viewBox="0 0 63 63" fill="none" xmlns="http://www.w3.org/2000/svg">
<g clip-path="url(#clip0_186_844)">
<path d="M57.9246 48.3534C54.4926 48.2594 51.8722 48.5803 49.6303 49.5244C48.9939 49.7936 47.979 49.7995 47.8752 50.5973C48.2251 50.9645 48.2788 51.5123 48.5578 51.9641C49.0923 52.8274 49.996 53.9885 50.8017 54.5983C51.6822 55.2618 52.5898 55.973 53.5338 56.5479C55.2142 57.5726 57.0889 58.1573 58.7038 59.1821C59.6576 59.7874 60.6031 60.5489 61.5339 61.2315C61.9936 61.5682 62.3031 62.0929 62.8987 62.3045V62.2085C62.5852 61.8089 62.5044 61.2586 62.216 60.8417L60.9472 59.5729C59.7069 57.927 58.1323 56.4814 56.4599 55.2815C55.1256 54.3222 52.138 53.0282 51.5823 51.4769L51.4844 51.3789C52.4304 51.2711 53.5378 50.9291 54.4124 50.6943C55.8791 50.302 57.1908 50.4039 58.7038 50.0116L60.7532 49.4274V49.0371C59.9879 48.2525 59.4421 47.2125 58.6078 46.5013C56.422 44.6404 54.0378 42.7829 51.5828 41.2335C50.2214 40.3741 48.5391 39.8145 47.0955 39.086C46.6092 38.8419 45.7573 38.713 45.4364 38.3054C44.6789 37.3403 44.2655 36.1157 43.6812 34.9891C42.4567 32.63 41.2547 30.0559 40.1685 27.5738C39.4282 25.8821 38.9459 24.2131 38.023 22.6962C33.5934 15.4133 28.8255 11.0166 21.4388 6.69616C19.8662 5.77725 17.9743 5.41401 15.9745 4.93905L12.7541 4.74464C12.0985 4.47148 11.4178 3.6697 10.8026 3.2794C8.35595 1.73245 2.07859 -1.63017 0.26537 2.79164C-0.878474 5.58136 1.97671 8.30365 2.9975 9.71869C3.71462 10.709 4.63157 11.8218 5.14295 12.9371C5.48157 13.6714 5.53916 14.4058 5.82758 15.181C6.53535 17.0921 7.15403 19.1721 8.07146 20.9371C8.53461 21.8309 9.04599 22.7715 9.63268 23.5713C9.9905 24.0615 10.6072 24.2791 10.7057 25.0346C10.1017 25.8787 10.0673 27.1879 9.72915 28.255C8.20435 33.0636 8.7812 39.0388 10.998 42.5958C11.6787 43.69 13.2823 46.0313 15.4853 45.1335C17.4137 44.347 16.983 41.9151 17.5348 39.7677C17.6598 39.2814 17.583 38.9236 17.8271 38.5968V38.6947L19.5842 42.2055C20.8841 44.2993 23.189 46.4871 25.1445 47.9636C26.1579 48.729 26.9557 50.0515 28.2669 50.4994V50.4014H28.169C27.915 50.0052 27.5173 49.8418 27.1944 49.5248C26.431 48.7752 25.5815 47.8445 24.9505 46.9871C23.1723 44.5744 21.6012 41.9324 20.1709 39.1835C19.4863 37.8703 18.8922 36.4228 18.3154 35.0865C18.0924 34.5712 18.0963 33.7906 17.6327 33.5253C17.0022 34.5038 16.0715 35.2962 15.5832 36.4514C14.8046 38.299 14.7027 40.5542 14.4143 42.8902C14.243 42.9517 14.3183 42.9094 14.2184 42.9881C12.859 42.6593 12.3825 41.2615 11.8766 40.0601C10.5998 37.0262 10.3616 32.1408 11.4863 28.6458C11.7767 27.7421 13.0918 24.8968 12.5592 24.0605C12.3053 23.2282 11.4671 22.7454 10.998 22.109C10.4172 21.3225 9.83891 20.2864 9.43679 19.3769C8.39089 17.0119 7.90461 14.3551 6.8026 11.9636C6.27596 10.8197 5.38757 9.66209 4.65716 8.6472C3.84751 7.52058 2.94238 6.68976 2.31533 5.32887C2.09237 4.84455 1.79066 4.06936 2.11944 3.57373C2.22526 3.23707 2.37341 3.0968 2.70564 2.98753C3.27067 2.55096 4.84764 3.13371 5.4358 3.37784C7.00096 4.02752 8.30624 4.64669 9.63268 5.52525C10.2671 5.94607 10.9114 6.76162 11.6802 6.98852H12.5587C13.9314 7.30402 15.4695 7.0845 16.7537 7.4748C19.0221 8.16485 21.0544 9.23782 22.9001 10.4028C28.5219 13.954 33.1209 19.0063 36.2659 25.0375C36.7714 26.0086 36.9909 26.9334 37.4368 27.9636C38.3346 30.0401 39.4671 32.1762 40.3609 34.2085C41.2547 36.2328 42.1239 38.2789 43.3869 39.9646C44.0504 40.851 46.6112 41.326 47.7762 41.8182C48.5933 42.1622 49.9315 42.522 50.7043 42.9891C52.1808 43.8795 53.6111 44.9406 54.9976 45.9151C55.6876 46.4034 57.8178 47.4744 57.9237 48.3549L57.9246 48.3534ZM14.3144 11.1834C13.5992 11.1701 13.0937 11.2602 12.5592 11.3779V11.4758H12.6552C12.9973 12.1757 13.5992 12.6275 14.022 13.2309L14.9965 15.2804L15.0945 15.1844C15.6984 14.7577 15.975 14.077 15.9711 13.037C15.7289 12.7811 15.6945 12.4641 15.4828 12.1585C15.2062 11.7529 14.6658 11.524 14.3139 11.1839L14.3144 11.1834Z" fill="#03364B"/>
</g>
<defs>
<clipPath id="clip0_186_844">
<rect width="63" height="63" fill="white"/>
</clipPath>
</defs>
</svg>
