<svg width="63" height="63" viewBox="0 0 63 63" fill="none" xmlns="http://www.w3.org/2000/svg">
<g clip-path="url(#clip0_186_1297)">
<path d="M55.6745 12.829C45.3636 -0.523059 26.1796 -2.98793 12.8271 7.32487C-0.523513 17.6377 -2.98593 36.8217 7.32688 50.1723C17.6417 63.5223 36.8271 65.9833 50.1757 55.6685C63.5209 45.3557 65.9838 26.1776 55.6745 12.829Z" fill="#F37036"/>
<path d="M44.8274 11.8931C43.7758 11.9772 42.7787 12.3956 41.9821 13.0871C41.0497 13.8968 40.4547 15.0265 40.3144 16.2534C40.1741 17.4802 40.4987 18.7151 41.2241 19.7144C41.9489 20.7139 43.0219 21.4055 44.2314 21.6529C45.441 21.9002 46.6994 21.6854 47.7584 21.0507H47.7594L47.8361 21.1275C48.1849 20.9277 48.5095 20.6882 48.8033 20.4138C49.7098 19.455 50.2085 18.1816 50.1942 16.8622C50.1799 15.5428 49.6536 14.2805 48.7265 13.3416V13.3406L44.3736 17.6664L44.2968 17.5901L48.6497 13.2623C48.1458 12.7766 47.5445 12.4034 46.8856 12.1675C46.2266 11.9316 45.5251 11.8384 44.8274 11.894V11.8931ZM39.0964 18.9742C37.0095 18.9707 33.6021 21.3362 25.2821 29.6561L25.3235 29.6984C25.2782 29.6827 25.2324 29.6812 25.2324 29.6812L22.1002 32.7859C22.0197 32.8624 21.9665 32.9631 21.9485 33.0727C21.9306 33.1822 21.9489 33.2947 22.0007 33.3928C22.0525 33.491 22.135 33.5696 22.2356 33.6166C22.3362 33.6636 22.4493 33.6764 22.5579 33.6532L27.9296 32.5074C27.9535 32.4852 27.9695 32.4558 27.9749 32.4237L28.094 32.5467L26.2631 34.3629H26.1745L15.304 45.319L18.7917 48.6777C18.8891 48.7659 19.0121 48.8206 19.1428 48.8338C19.2736 48.847 19.4051 48.818 19.5181 48.751C19.6321 48.6847 19.7234 48.5855 19.7801 48.4664C19.8367 48.3473 19.8561 48.2139 19.8356 48.0836L19.3262 45.8688C19.2941 45.8243 19.2769 45.771 19.2769 45.7162C19.2769 45.6614 19.2941 45.608 19.3262 45.5636C24.0876 43.2936 28.5155 40.3818 32.4863 36.9095L30.2542 34.6764L30.2965 34.6695L28.9726 33.346L29.0572 33.2604L29.1468 33.3519L29.1005 33.3967L32.6133 36.9863V36.9848C39.3464 30.609 44.1255 25.4838 42.8828 22.0346C42.8261 21.6221 42.6346 21.24 42.3379 20.9478V20.9498C42.2624 20.894 42.1829 20.8437 42.1002 20.7992C42.0593 20.7559 42.0234 20.7116 41.9801 20.6693L41.9476 20.7017C41.8562 20.6465 41.7604 20.5987 41.6612 20.559L41.8034 20.4153C40.9194 19.6278 40.189 18.9761 39.0964 18.9732V18.9742ZM15.2282 45.3845L12.6831 47.9301V47.932C12.5918 47.9886 12.5208 48.0727 12.4804 48.1722C12.44 48.2717 12.4322 48.3815 12.4582 48.4857C12.4833 48.5899 12.5406 48.6835 12.622 48.7532C12.7034 48.823 12.8047 48.8652 12.9115 48.8741L19.1485 49.3047L15.2282 45.3845Z" fill="white"/>
<path d="M45.2567 11.4727C43.8282 11.471 42.4565 12.0315 41.4378 13.0329C40.7131 13.7747 40.217 14.7091 40.0084 15.725C39.7998 16.7408 39.8877 17.7951 40.2615 18.7624C37.928 17.7633 34.7711 19.5057 24.9515 29.3233C24.9446 29.3384 24.9386 29.3539 24.9333 29.3696C24.9131 29.3784 24.8935 29.3886 24.8747 29.4001L21.7695 32.5324C21.6207 32.6785 21.5229 32.8687 21.4907 33.0747C21.4585 33.2808 21.4936 33.4917 21.5908 33.6762C21.6775 33.8223 21.8003 33.9436 21.9475 34.0284C22.0946 34.1132 22.2611 34.1587 22.431 34.1605L22.585 34.0606L26.7312 33.1762L24.7477 35.1779C24.7365 35.2043 24.7276 35.2316 24.7211 35.2596L15.0004 45.0044C14.9617 45.037 14.9296 45.0768 14.9059 45.1216L12.4027 47.6268C12.2781 47.7586 12.1929 47.9226 12.1569 48.1004C12.1209 48.2781 12.1354 48.4624 12.1989 48.6323C12.2644 48.801 12.3751 48.9483 12.5189 49.0582C12.6627 49.168 12.834 49.2361 13.014 49.2549L19.2244 49.6881C19.3305 49.6512 19.4208 49.5791 19.4803 49.4838C19.5334 49.4095 19.562 49.3204 19.562 49.2291C19.562 49.1378 19.5334 49.0487 19.4803 48.9744L19.4675 48.9621C19.6019 48.8922 19.7201 48.795 19.8145 48.6766C19.9142 48.5471 19.9838 48.3971 20.0183 48.2374C20.0529 48.0778 20.0515 47.9124 20.0143 47.7533L19.53 45.6925C24.1765 43.472 28.5301 40.6845 32.4913 37.3937C32.5295 37.416 32.5706 37.4331 32.6134 37.4444C32.7384 37.4351 32.8555 37.3814 32.9441 37.2928C39.6132 30.978 43.5335 26.6507 43.5335 23.2153C43.5483 22.7387 43.4764 22.2634 43.3214 21.8125C43.9225 22.0613 44.5636 22.1997 45.2139 22.2211L45.2065 22.223C46.1022 22.196 46.9778 21.951 47.7575 21.5093L47.7594 21.5098C47.8604 21.5398 47.969 21.5302 48.0631 21.4828C48.4394 21.2612 48.7824 20.9874 49.082 20.6697C49.5896 20.1717 49.9928 19.5776 50.2682 18.9219C50.5435 18.2663 50.6854 17.5624 50.6855 16.8513C50.6854 16.1402 50.5437 15.4363 50.2684 14.7807C49.9932 14.1251 49.59 13.5309 49.0824 13.0329C49.0642 13.0165 49.0448 13.0016 49.0244 12.9881C48.0111 12.0155 46.6607 11.4726 45.2562 11.4732L45.2567 11.4727ZM45.2139 12.3448C46.2085 12.3508 47.1739 12.6816 47.9632 13.2869L43.9922 17.2819C43.9788 17.2972 43.9663 17.3133 43.9548 17.3302C43.8833 17.4026 43.8413 17.4991 43.8372 17.6009C43.8372 17.6624 43.851 17.7231 43.8777 17.7785C43.9043 17.8339 43.9432 17.8825 43.9913 17.9208H43.9922L46.9946 20.9232C46.1728 21.2818 45.2619 21.3838 44.3811 21.2158C43.5004 21.0478 42.691 20.6176 42.0589 19.9816C40.7861 18.7019 40.417 16.7804 41.0977 15.1134C41.7784 13.4449 43.4011 12.3547 45.2139 12.3448ZM48.7182 14.034C49.3675 14.8196 49.7215 15.8075 49.7188 16.8267C49.717 18.0206 49.2411 19.165 48.3958 20.0082C48.2263 20.1676 48.0457 20.3148 47.8554 20.4487L45.4324 18.0631L44.9584 17.5891L45.0888 17.4586L48.7177 14.033L48.7182 14.034ZM48.5381 16.0977C48.449 16.0697 48.3528 16.0752 48.2674 16.113C48.1829 16.1567 48.1192 16.2321 48.0902 16.3227C48.0759 16.3679 48.0708 16.4155 48.075 16.4627C48.0792 16.5099 48.0928 16.5558 48.1148 16.5978C48.2021 16.7817 48.2364 16.9863 48.2141 17.1887C48.1918 17.391 48.1136 17.5832 47.9883 17.7436C47.9562 17.7746 47.9311 17.812 47.9145 17.8534C47.898 17.8948 47.8904 17.9393 47.8923 17.9838C47.8943 18.0744 47.9268 18.161 47.9883 18.226C48.0539 18.251 48.1265 18.251 48.1921 18.226C48.2513 18.2407 48.3134 18.239 48.3716 18.2211C48.4299 18.2031 48.4822 18.1696 48.5228 18.1241C48.7324 17.8673 48.8651 17.5566 48.9056 17.2276C48.9461 16.8987 48.8927 16.565 48.7517 16.2651V16.2671C48.7036 16.1864 48.6276 16.1262 48.5381 16.0977ZM39.0502 19.4067C39.6441 19.427 40.2155 19.6386 40.6793 20.0101C40.1799 20.0822 39.7171 20.3135 39.3598 20.6697L28.1345 31.8448L25.9314 29.6418C31.753 23.8477 35.3125 20.8213 37.5254 19.8295C37.9814 19.5424 38.5115 19.3957 39.0502 19.4067ZM41.0017 20.8636C41.3786 20.8639 41.7401 21.0132 42.0072 21.279C42.149 21.4126 42.2609 21.5746 42.3355 21.7546C42.4101 21.9345 42.4456 22.1282 42.4399 22.3229C42.4334 22.517 42.387 22.7076 42.3036 22.8829C42.2202 23.0581 42.1016 23.2144 41.9551 23.3418L30.0195 33.7299L28.7315 32.4418L39.9962 21.279C40.2634 21.0134 40.6249 20.8638 41.0017 20.8636ZM42.4753 24.1603C41.6435 27.4589 37.235 31.9285 32.638 36.2715L30.779 34.4145L42.4753 24.1603ZM25.2822 30.2924L25.4171 30.4253L27.1461 32.1544L22.4064 33.1683L25.2822 30.2924ZM28.1335 33.1668L28.1354 33.1688L28.7103 33.7569L28.7192 33.7983L28.7576 33.8042L28.8796 33.9292L29.2832 34.3426L26.6328 34.6675L28.1335 33.1668ZM30.0368 35.173L31.7978 36.933C27.9037 40.1711 23.6306 42.9239 19.0723 45.1309C18.9243 45.2014 18.8053 45.321 18.7356 45.4693C18.6659 45.6176 18.6497 45.7856 18.6899 45.9445L19.1993 48.1593C19.2181 48.1853 19.2282 48.2166 19.2282 48.2487C19.2282 48.2807 19.2181 48.312 19.1993 48.338C19.1713 48.3631 19.135 48.377 19.0974 48.377C19.0598 48.377 19.0235 48.3631 18.9955 48.338L15.9922 45.3101L25.2493 35.9172L30.0368 35.173ZM15.3041 45.9716L15.7318 46.3722L17.9427 48.5831L13.013 48.2642L15.3041 45.9716Z" fill="#F37036"/>
</g>
<defs>
<clipPath id="clip0_186_1297">
<rect width="63" height="63" fill="white"/>
</clipPath>
</defs>
</svg>
