<svg width="63" height="63" viewBox="0 0 63 63" fill="none" xmlns="http://www.w3.org/2000/svg">
<g clip-path="url(#clip0_186_1263)">
<path d="M11.1564 0.787598L51.8436 0.787598C58.0127 0.787598 63 5.77493 63 11.944V51.0562C63 57.2253 58.0127 62.2126 51.8436 62.2126H11.1564C4.98734 62.2126 0 57.2253 0 51.0562L0 11.944C0 5.77493 4.98734 0.787598 11.1564 0.787598Z" fill="#001E36"/>
<path d="M22.5752 16.406C21.7877 16.406 21.0002 16.406 20.1866 16.4326C19.3725 16.4587 18.6111 16.4587 17.9024 16.4852C17.1936 16.5113 16.5375 16.5113 15.9075 16.5374C15.3036 16.5635 14.8838 16.5635 14.4374 16.5635C14.2538 16.5635 14.175 16.6683 14.175 16.8524V43.8637C14.175 44.0999 14.2799 44.2052 14.49 44.2052H19.5827C19.7663 44.1787 19.8977 44.0212 19.8711 43.8376V35.4113C20.3697 35.4113 20.7374 35.4113 21.0002 35.4374C21.2625 35.4635 21.6824 35.4635 22.3124 35.4635C24.4652 35.4635 26.434 35.2273 28.2186 34.5712C29.925 33.9412 31.3952 32.8387 32.445 31.3685C33.495 29.8985 34.0201 28.0348 34.0201 25.7773C34.0201 24.596 33.8104 23.4674 33.4166 22.3649C32.9994 21.2417 32.3458 20.2212 31.5 19.3724C30.5018 18.4026 29.3002 17.6672 27.9824 17.2196C26.5122 16.6683 24.7275 16.406 22.5752 16.406ZM23.1609 21.5764C24.0961 21.5942 25.0066 21.7576 25.8561 22.1021C26.6175 22.391 27.2475 22.9162 27.694 23.5983C28.1126 24.3043 28.3221 25.1148 28.2979 25.9352C28.2979 27.0899 28.035 27.9827 27.4838 28.6388C26.906 29.2949 26.1711 29.794 25.3315 30.0302C24.3599 30.3452 23.3361 30.5023 22.3124 30.5023H20.921C20.606 30.5023 20.2654 30.4762 19.8977 30.4501V21.6301C20.0813 21.6035 20.449 21.5774 20.9741 21.604C21.4727 21.5774 22.0761 21.5774 22.7588 21.5774C22.8933 21.5741 23.0274 21.5738 23.1609 21.5764ZM45.1765 22.9167C43.3125 22.9167 41.7636 23.2051 40.5302 23.8351C39.4016 24.3602 38.43 25.1999 37.774 26.2498C37.1966 27.2213 36.8811 28.2973 36.8811 29.4263C36.8587 30.355 37.0662 31.2747 37.4851 32.1038C37.976 32.9866 38.6576 33.7489 39.4804 34.3349C40.6351 35.1247 41.8882 35.7601 43.2077 36.2249C44.4938 36.7235 45.36 37.1173 45.7804 37.4583C46.2002 37.7999 46.4104 38.141 46.4104 38.5087C46.4104 38.9812 46.1215 39.4276 45.7016 39.6112C45.2291 39.8474 44.5204 39.9788 43.5227 39.9788C42.4729 39.9788 41.4225 39.8474 40.4249 39.5851C39.2794 39.3292 38.1811 38.8953 37.17 38.299C37.0913 38.2463 37.0125 38.2202 36.9338 38.2729C36.855 38.3251 36.829 38.4299 36.829 38.5087V43.0762C36.8029 43.2863 36.9338 43.4699 37.1179 43.5748C37.9691 43.9724 38.8695 44.255 39.7954 44.4149C40.9766 44.6512 42.1574 44.756 43.3647 44.756C45.2547 44.756 46.8302 44.4676 48.1163 43.9163C49.2976 43.4438 50.3213 42.6302 51.0561 41.5799C51.7444 40.5474 52.1015 39.3295 52.0799 38.0888C52.1058 37.1516 51.8984 36.2226 51.4765 35.3852C50.9774 34.4924 50.2686 33.7576 49.4024 33.2063C48.1351 32.4105 46.7783 31.7672 45.36 31.2898C44.7267 31.0276 44.1048 30.7386 43.4961 30.4235C43.155 30.2399 42.84 30.0037 42.6038 29.7148C42.4463 29.5046 42.3415 29.2688 42.3415 29.0326C42.3415 28.7963 42.4202 28.534 42.5511 28.3238C42.7352 28.0615 43.0236 27.8774 43.3647 27.7987C43.8638 27.6677 44.415 27.5885 44.9397 27.6146C45.9374 27.6146 46.9085 27.746 47.88 27.9562C48.7729 28.1398 49.6125 28.4287 50.4001 28.849C50.5049 28.9012 50.6363 28.9012 50.8725 28.849C50.9136 28.8186 50.9468 28.779 50.9697 28.7333C50.9925 28.6876 51.0042 28.6372 51.004 28.5862V24.3076C51.004 24.2023 50.9774 24.0974 50.9513 23.9926C50.8986 23.8877 50.7938 23.7824 50.689 23.7563C49.965 23.4604 49.2064 23.2575 48.4313 23.1524C47.3535 22.9955 46.2657 22.917 45.1765 22.9167Z" fill="#31A8FF"/>
</g>
<defs>
<clipPath id="clip0_186_1263">
<rect width="63" height="63" fill="white"/>
</clipPath>
</defs>
</svg>
