<svg width="63" height="63" viewBox="0 0 63 63" fill="none" xmlns="http://www.w3.org/2000/svg">
<g clip-path="url(#clip0_186_1305)">
<path d="M13.415 39.7288C13.415 43.3365 10.4727 46.2832 6.86452 46.2832C3.25629 46.2832 0.310547 43.3365 0.310547 39.7288C0.310547 36.121 3.25727 33.1743 6.86501 33.1743H13.4155L13.415 39.7288ZM16.7171 39.7288C16.7171 36.121 19.6639 33.1743 23.2716 33.1743C26.8793 33.1743 29.826 36.1206 29.826 39.7288V56.1358C29.826 59.7436 26.8798 62.6903 23.2716 62.6903C19.6639 62.6903 16.7171 59.7436 16.7171 56.1358V39.7288Z" fill="#DE1C59"/>
<path d="M23.2716 13.4146C19.6639 13.4146 16.7171 10.4723 16.7171 6.86403C16.7171 3.2558 19.6639 0.310059 23.2716 0.310059C26.8793 0.310059 29.826 3.25678 29.826 6.86452V13.415L23.2716 13.4146ZM23.2716 16.7166C26.8793 16.7166 29.826 19.6634 29.826 23.2711C29.826 26.8788 26.8798 29.8256 23.2716 29.8256H6.86452C3.25678 29.8256 0.310547 26.8793 0.310547 23.2711C0.310547 19.6634 3.25727 16.7166 6.86501 16.7166H23.2716Z" fill="#35C5F0"/>
<path d="M49.5858 23.2711C49.5858 19.6634 52.5281 16.7166 56.1363 16.7166C59.7446 16.7166 62.6908 19.6634 62.6908 23.2711C62.6908 26.8788 59.7441 29.8256 56.1363 29.8256H49.5858V23.2711ZM46.2837 23.2711C46.2837 26.8788 43.337 29.8256 39.7293 29.8256C36.1215 29.8256 33.1748 26.8793 33.1748 23.2711V6.86403C33.1748 3.25629 36.121 0.310059 39.7293 0.310059C43.337 0.310059 46.2837 3.25678 46.2837 6.86452V23.2711Z" fill="#2EB57D"/>
<path d="M39.7293 49.5853C43.337 49.5853 46.2837 52.5276 46.2837 56.1358C46.2837 59.7441 43.337 62.6903 39.7293 62.6903C36.1215 62.6903 33.1748 59.7436 33.1748 56.1358V49.5853H39.7293ZM39.7293 46.2832C36.1215 46.2832 33.1748 43.3365 33.1748 39.7288C33.1748 36.121 36.121 33.1743 39.7293 33.1743H56.1363C59.7441 33.1743 62.6908 36.1206 62.6908 39.7288C62.6908 43.3365 59.7441 46.2832 56.1363 46.2832H39.7293Z" fill="#EBB02E"/>
</g>
<defs>
<clipPath id="clip0_186_1305">
<rect width="63" height="63" fill="white"/>
</clipPath>
</defs>
</svg>
