<svg width="64" height="64" viewBox="0 0 64 64" fill="none" xmlns="http://www.w3.org/2000/svg">
<path d="M9.51999 55.2684L4.6665 0.666626H57.9998L53.1415 55.2602L31.3008 61.3333L9.51999 55.2684Z" fill="#1572B6"/>
<path d="M32.0005 58.531L50.28 53.463L54.5805 5.28601H32.0005V58.531Z" fill="#33A9DC"/>
<path d="M32.0005 25.7145H41.1515L41.7835 18.633H32.0005V11.7175H49.3415L49.1755 13.573L47.4755 32.63H32.0005V25.7145Z" fill="white"/>
<path d="M32.0415 43.6745L32.011 43.6835L24.3095 41.604L23.817 36.0885H16.876L17.8445 46.947L32.01 50.8785L32.0415 50.8695V43.6745Z" fill="#EBEBEB"/>
<path d="M40.5636 32.3375L39.7306 41.5985L32.0176 43.6805V50.8755L46.1946 46.9465L46.2986 45.778L47.5016 32.3375H40.5636Z" fill="white"/>
<path d="M32.0242 11.7175V18.633H15.3202L15.1817 17.079L14.8667 13.573L14.7012 11.7175H32.0242ZM32.0007 25.7155V32.631H24.3962L24.2577 31.077L23.9422 27.571L23.7772 25.7155H32.0007Z" fill="#EBEBEB"/>
</svg>
