<svg width="63" height="63" viewBox="0 0 63 63" fill="none" xmlns="http://www.w3.org/2000/svg">
<g clip-path="url(#clip0_186_1328)">
<path d="M57.3162 3.26958C56.4343 5.38653 55.3047 7.39157 53.9511 9.24277C48.0222 3.31732 39.9832 -0.0117452 31.6009 -0.0128174C14.2656 -0.0128174 4.24368e-09 14.2646 4.24368e-09 31.6191C-7.01616e-05 35.9046 0.869961 40.1455 2.55737 44.0848C4.24478 48.024 6.71444 51.5797 9.81668 54.5363L10.9822 55.5699C16.6782 60.3724 23.8876 63.0084 31.3381 63.0128C47.82 63.0128 61.675 50.0978 62.8484 33.6376C63.7102 25.58 61.3467 15.3887 57.3162 3.26958ZM14.3064 54.7165C14.0527 55.0291 13.7324 55.2812 13.3689 55.4544C13.0054 55.6275 12.6079 55.7175 12.2053 55.7176C10.7198 55.7176 9.50463 54.495 9.50463 53.0096C9.50463 51.5241 10.7277 50.302 12.2053 50.302C12.8205 50.302 13.4284 50.5152 13.9043 50.9094C15.0614 51.8445 15.2421 53.5593 14.3064 54.7165ZM57.1853 45.2478C49.3876 55.6437 32.7334 52.1399 22.0549 52.6404C22.0549 52.6404 20.159 52.7556 18.2547 53.0671C18.2547 53.0671 18.9684 52.7635 19.8962 52.4106C27.3902 49.8015 30.936 49.2926 35.4911 46.9542C44.0685 42.589 52.5474 33.0381 54.3124 23.1013C51.0457 32.6606 41.1464 40.8742 32.1261 44.2137C25.9457 46.495 14.7824 48.7103 14.7824 48.7103L14.331 48.4721C6.73066 44.7718 6.50032 28.3037 20.3145 22.9866C26.364 20.6561 32.1507 21.9363 38.6845 20.377C45.6612 18.7198 53.7296 13.4844 57.0125 6.6578C60.6897 17.5794 65.1144 34.679 57.1853 45.2478Z" fill="#77BC1F"/>
</g>
<defs>
<clipPath id="clip0_186_1328">
<rect width="63" height="63" fill="white"/>
</clipPath>
</defs>
</svg>
