<svg width="63" height="63" viewBox="0 0 63 63" fill="none" xmlns="http://www.w3.org/2000/svg">
<g clip-path="url(#clip0_186_152)">
<path d="M29.231 0.074807C28.9928 0.0999086 28.2491 0.18801 27.593 0.265284C24.948 0.566994 21.9486 1.36139 19.3164 2.47028C9.79008 6.4506 2.62039 15.1835 0.642289 25.2C0.17668 27.5822 0.0634766 28.7526 0.0634766 31.5C0.0634766 35.0413 0.415391 37.485 1.34809 40.573C4.39719 50.6776 12.3352 58.6028 22.4659 61.6637C25.515 62.5846 27.972 62.9365 31.5 62.9365C35.0413 62.9365 37.485 62.5846 40.573 61.6519C50.6776 58.6028 58.6028 50.6648 61.6637 40.5341C62.5846 37.485 62.9365 35.028 62.9365 31.5C62.9365 30.0003 62.8617 28.2875 62.7731 27.6565C61.7523 20.3741 58.7529 14.2503 53.7523 9.2477C48.761 4.2835 42.6628 1.27279 35.531 0.251995C34.5486 0.113198 29.9998 -0.0137868 29.231 0.074807ZM18.9625 19.9198C19.6319 20.1216 19.9449 20.3106 20.3987 20.7639C21.2812 21.6597 21.483 22.1504 21.483 23.498C21.483 24.5075 21.4446 24.696 21.1429 25.2246C20.5621 26.207 19.2145 27.1146 18.2823 27.1392C17.6262 27.153 17.6533 26.8626 18.3709 26.1071C19.3282 25.1114 19.4665 24.7339 19.4665 23.246C19.4547 21.8103 19.278 21.3196 18.6106 20.916C18.0554 20.5759 17.4515 20.601 16.569 21.0159C14.2754 22.1135 11.7933 25.767 10.8242 29.5101C9.53809 34.4994 11.8184 38.4925 15.5733 37.8118C16.6689 37.61 18.7356 36.5528 19.6319 35.72C20.3741 35.0413 20.3741 35.028 20.4489 34.1844C20.6143 32.4189 21.86 30.6559 23.5251 29.8369C24.2919 29.4579 24.4824 29.4215 25.515 29.4215C26.4974 29.4215 26.7243 29.4717 27.2032 29.735C28.7275 30.6062 28.4125 32.634 26.7627 32.634C25.8054 32.634 25.3132 32.1418 26.0072 31.879C26.6879 31.627 26.4339 30.681 25.642 30.4674C24.7093 30.2272 23.6501 30.8577 22.9827 32.067C22.1755 33.5288 22.1386 35.2682 22.9059 36.0606C23.6501 36.8545 24.5823 36.226 25.3014 34.4221C25.6784 33.5032 26.2203 33.011 26.8513 33.011C27.405 33.011 27.5069 33.3516 27.2662 34.3857C26.9128 35.9853 27.153 36.4007 28.1487 35.9105C28.4755 35.7584 29.0179 35.407 29.3447 35.155L29.9619 34.6628L30.3793 32.4824C30.8331 30.0387 31.0078 29.7099 31.9405 29.5352C32.8363 29.3698 33.0381 29.8118 32.7093 31.2096L32.5321 31.9922L33.1882 31.3228C34.7376 29.735 36.6409 28.9544 37.2965 29.61C37.6484 29.9619 37.61 30.4039 37.1065 31.9651C36.8678 32.7093 36.539 33.8822 36.3894 34.5491C36.1625 35.5566 36.1487 35.7968 36.2762 35.9607C36.6798 36.4391 37.9137 35.9469 39.0098 34.8759L39.6521 34.2474L39.7289 32.8476C39.8037 31.2347 39.9538 30.6559 40.3825 30.1386C40.7861 29.6602 41.517 29.3083 41.9073 29.4082C42.2976 29.5101 42.2976 29.8871 41.9457 30.9965C41.4535 32.5208 41.5052 36.0355 42.0092 36.0355C42.211 36.0355 43.2431 34.9527 43.8992 34.0456L44.3894 33.3762L43.9991 32.9746C43.3184 32.256 43.155 31.7904 43.155 30.6175C43.155 29.7621 43.2185 29.4466 43.4316 29.0292C43.7855 28.3756 44.3392 27.8972 44.9948 27.7067C45.6868 27.4931 46.5442 27.845 46.8961 28.4755C47.25 29.1178 47.1619 30.554 46.7076 31.5384L46.3808 32.2555H46.8213C47.4267 32.2555 47.6654 32.1054 48.7497 31.0846C49.3167 30.5427 49.9723 30.0756 50.4625 29.8487C52.3909 28.9431 54.6599 29.4082 55.0364 30.7942C55.3514 31.9036 54.6599 32.6842 53.4486 32.5956C52.5794 32.5326 52.416 32.3052 52.92 31.879C53.8271 31.121 52.92 30.1524 51.6221 30.5043C50.9163 30.6943 50.1224 31.4867 49.7075 32.4076C48.8747 34.2474 49.3167 36.414 50.5127 36.414C50.9916 36.414 51.8372 35.4685 52.164 34.5491C52.5543 33.4899 53.3733 32.823 53.9905 33.0627C54.3311 33.1882 54.3562 33.5283 54.1426 34.5993C53.9024 35.7722 53.8655 36.8683 54.054 37.3718C54.1293 37.5598 54.3562 37.9137 54.5713 38.1524C54.9729 38.6057 54.9867 38.7696 54.6461 38.9847C54.4827 39.0979 54.2671 39.0482 53.739 38.7583C53.0081 38.3793 52.3776 37.6986 52.1507 37.0563L52.0124 36.6793L51.5084 37.0563C51.218 37.2581 50.7647 37.485 50.5009 37.5598C49.455 37.8369 48.1689 37.1198 47.5655 35.9105C47.3248 35.4429 47.25 34.0707 47.4267 33.5416C47.5271 33.2512 47.5271 33.2512 47.123 33.453C46.9099 33.5667 46.4561 33.6917 46.1042 33.7301C45.5234 33.7941 45.4348 33.8571 44.8565 34.5875C44.0375 35.6063 42.5875 36.9815 41.9954 37.2719C40.7364 37.9004 40.321 37.7237 39.9922 36.4253L39.7653 35.5566L39.2229 36.0355C38.5309 36.6409 37.1449 37.3718 36.3505 37.5485C35.595 37.7119 34.7878 37.4717 34.4605 36.9677C33.9708 36.2122 34.1342 34.6126 34.9143 32.4573C35.4931 30.8577 35.0782 30.8331 33.6169 32.3574C32.5326 33.5032 32.067 34.3222 31.7653 35.595C31.4503 36.918 31.0713 37.3964 30.2159 37.5982C29.6986 37.7119 29.4579 37.3964 29.5603 36.7044L29.6351 36.1487L29.1562 36.4775C28.4755 36.9431 27.6181 37.3718 27.026 37.5352C26.4339 37.6986 25.6533 37.5234 25.4648 37.1946C25.1247 36.6163 25.1247 36.6163 24.5961 37.0312C23.4483 37.9639 21.8103 37.6986 20.9795 36.4642L20.7137 36.0739L19.8834 36.8427C17.4879 39.0349 14.4905 40.0173 12.2722 39.3366C9.44949 38.4812 7.88827 36.0606 7.91337 32.571C7.92519 29.0681 9.47459 25.3767 12.0837 22.6426C13.5583 21.1045 14.9443 20.1969 16.3559 19.8568C17.3747 19.6048 17.9939 19.6176 18.9625 19.9198Z" fill="#00C4CC"/>
<path d="M44.5027 28.8796C44.2255 29.1563 44.3274 30.2656 44.6798 30.9714C44.8565 31.3366 45.045 31.627 45.108 31.627C45.1582 31.627 45.2714 31.3366 45.36 30.9828C45.675 29.6735 45.108 28.2738 44.5027 28.8796Z" fill="#00C4CC"/>
</g>
<defs>
<clipPath id="clip0_186_152">
<rect width="63" height="63" fill="white"/>
</clipPath>
</defs>
</svg>
