<svg width="22" height="23" viewBox="0 0 22 23" fill="none" xmlns="http://www.w3.org/2000/svg">
<g clip-path="url(#clip0_30_669)">
<path d="M20.1815 10.6588H19.1511C18.5697 10.6588 18.0997 11.0362 18.0997 11.5009C18.0997 11.9646 18.5697 12.341 19.1511 12.341H20.1815C20.7618 12.341 21.2328 11.9657 21.2328 11.5009C21.2328 11.0373 20.7608 10.6588 20.1815 10.6588ZM10.719 5.71831C9.95891 5.71595 9.2059 5.86391 8.50325 6.15368C7.80061 6.44345 7.16219 6.8693 6.62476 7.40674C6.08732 7.94418 5.66146 8.58259 5.3717 9.28524C5.08193 9.98788 4.93397 10.7409 4.93633 11.5009C4.93633 14.7087 7.51118 17.2836 10.719 17.2836C13.9257 17.2836 16.5016 14.7087 16.5016 11.5009C16.5016 8.29316 13.9246 5.71831 10.719 5.71831ZM10.719 15.7065C8.39434 15.7065 6.51341 13.8235 6.51341 11.5009C6.51341 9.17632 8.39434 7.29539 10.719 7.29539C11.8343 7.29539 12.904 7.73847 13.6927 8.52717C14.4814 9.31586 14.9245 10.3856 14.9245 11.5009C14.9245 12.6163 14.4814 13.686 13.6927 14.4747C12.904 15.2634 11.8343 15.7065 10.719 15.7065ZM3.35924 11.5009C3.35924 11.0373 2.88717 10.6588 2.30785 10.6588H1.25647C0.675049 10.6588 0.205078 11.0362 0.205078 11.5009C0.205078 11.9646 0.675049 12.341 1.25647 12.341H2.30785C2.88717 12.341 3.35924 11.9646 3.35924 11.5009ZM10.719 4.14123C11.1826 4.14123 11.559 3.67125 11.559 3.08984V2.03845C11.559 1.45703 11.1826 0.987061 10.719 0.987061C10.2553 0.987061 9.8768 1.45703 9.8768 2.03845V3.08984C9.8768 3.67125 10.2542 4.14123 10.719 4.14123ZM10.719 18.8607C10.2542 18.8607 9.8768 19.3306 9.8768 19.912V20.9634C9.8768 21.5449 10.2542 22.0148 10.719 22.0148C11.1826 22.0148 11.559 21.5449 11.559 20.9634V19.912C11.559 19.3306 11.1826 18.8607 10.719 18.8607ZM18.4624 4.94659C18.8735 4.5355 18.9398 3.9362 18.6117 3.60817C18.2837 3.28014 17.6834 3.34743 17.2744 3.75852L16.5384 4.49344C16.1273 4.90453 16.0611 5.50382 16.3891 5.83186C16.7171 6.15989 17.3175 6.0926 17.7275 5.68151L18.4624 4.94659ZM3.71041 17.3183L2.97443 18.0553C2.56334 18.4664 2.4971 19.0636 2.82514 19.3916C3.15317 19.7196 3.75351 19.6545 4.1625 19.2434L4.89848 18.5084C5.30957 18.0974 5.37581 17.4981 5.04777 17.169C4.71974 16.8399 4.1194 16.9093 3.71041 17.3183ZM4.16356 3.75747C3.75351 3.34638 3.15317 3.27909 2.82514 3.60712C2.4971 3.93515 2.56439 4.5355 2.97338 4.94659L3.70936 5.68151C4.12045 6.0926 4.71869 6.15989 5.04672 5.83186C5.37475 5.50382 5.30852 4.90348 4.89848 4.49344L4.16356 3.75747ZM16.5373 18.5095L17.2733 19.2444C17.6844 19.6555 18.2826 19.7207 18.6107 19.3948C18.9387 19.0667 18.8725 18.4664 18.4614 18.0563L17.7265 17.3214C17.3154 16.9103 16.7161 16.843 16.387 17.1711C16.0579 17.4991 16.1263 18.0984 16.5373 18.5095Z" fill="white"/>
</g>
<defs>
<clipPath id="clip0_30_669">
<rect width="21.0278" height="21.0278" fill="white" transform="translate(0.205078 0.987061)"/>
</clipPath>
</defs>
</svg>
