<svg width="30" height="31" viewBox="0 0 30 31" fill="none" xmlns="http://www.w3.org/2000/svg">
<path d="M15 0C13.0302 0 11.0796 0.403343 9.25975 1.187C7.43986 1.97065 5.78628 3.11928 4.3934 4.56729C1.58035 7.49167 0 11.458 0 15.5937C0 22.4861 4.305 28.3337 10.26 30.4077C11.01 30.5324 11.25 30.049 11.25 29.628V26.9927C7.095 27.9283 6.21 24.9031 6.21 24.9031C5.52 23.0942 4.545 22.6108 4.545 22.6108C3.18 21.644 4.65 21.6752 4.65 21.6752C6.15 21.7844 6.945 23.2814 6.945 23.2814C8.25 25.6516 10.455 24.9499 11.31 24.5757C11.445 23.5621 11.835 22.8759 12.255 22.4861C8.925 22.0963 5.43 20.7552 5.43 14.814C5.43 13.0831 6 11.6953 6.975 10.5881C6.825 10.1983 6.3 8.57653 7.125 6.47138C7.125 6.47138 8.385 6.05035 11.25 8.06194C12.435 7.71888 13.725 7.54734 15 7.54734C16.275 7.54734 17.565 7.71888 18.75 8.06194C21.615 6.05035 22.875 6.47138 22.875 6.47138C23.7 8.57653 23.175 10.1983 23.025 10.5881C24 11.6953 24.57 13.0831 24.57 14.814C24.57 20.7708 21.06 22.0807 17.715 22.4705C18.255 22.9539 18.75 23.9051 18.75 25.3553V29.628C18.75 30.049 18.99 30.548 19.755 30.4077C25.71 28.3181 30 22.4861 30 15.5937C30 13.5459 29.612 11.5182 28.8582 9.62624C28.1044 7.73433 26.9995 6.01529 25.6066 4.56729C24.2137 3.11928 22.5601 1.97065 20.7403 1.187C18.9204 0.403343 16.9698 0 15 0Z" fill="white"/>
</svg>
