<svg width="33" height="33" viewBox="0 0 33 33" fill="none" xmlns="http://www.w3.org/2000/svg">
<circle cx="16.5" cy="16.5" r="16.5" fill="black"/>
<path d="M16.5977 9.32227C15.9727 9.32227 15.3379 9.39062 14.6934 9.52734C14.0553 9.65755 13.3848 9.90169 12.6816 10.2598C11.985 10.6178 11.3698 11.0703 10.8359 11.6172C10.3021 12.1641 9.86263 12.8932 9.51758 13.8047C9.17253 14.7096 9 15.735 9 16.8809C9 18.0267 9.17253 19.0553 9.51758 19.9668C9.86263 20.8717 10.3021 21.5944 10.8359 22.1348C11.3698 22.6686 11.985 23.1146 12.6816 23.4727C13.3848 23.8242 14.0553 24.0651 14.6934 24.1953C15.3379 24.332 15.9727 24.4004 16.5977 24.4004C17.5807 24.4004 18.4629 24.306 19.2441 24.1172C20.0254 23.9349 20.9108 23.6484 21.9004 23.2578C21.6074 22.457 21.4609 21.4447 21.4609 20.2207V18.7754C21.4609 18.3001 22.5449 17.9876 24.7129 17.8379C24.7845 17.6816 24.7845 17.5286 24.7129 17.3789C23.0072 17.431 21.6758 17.457 20.7188 17.457C19.918 17.457 18.7852 17.431 17.3203 17.3789C17.2747 17.5286 17.2747 17.6816 17.3203 17.8379C18.8242 17.9876 19.5762 18.3001 19.5762 18.7754V22.7402C19.0163 23.3783 18.0234 23.6973 16.5977 23.6973C15.8359 23.6973 15.1426 23.5573 14.5176 23.2773C13.8926 22.9974 13.375 22.6296 12.9648 22.1738C12.5612 21.7116 12.2227 21.1777 11.9492 20.5723C11.6758 19.9668 11.4772 19.3581 11.3535 18.7461C11.2363 18.1276 11.1777 17.5059 11.1777 16.8809C11.1777 16.0801 11.2754 15.2988 11.4707 14.5371C11.6725 13.7689 11.9753 13.0397 12.3789 12.3496C12.7891 11.653 13.3555 11.0898 14.0781 10.6602C14.8073 10.2305 15.6471 10.0156 16.5977 10.0156C17.2357 10.0156 17.8281 10.1165 18.375 10.3184C18.9219 10.5202 19.3711 10.7578 19.7227 11.0312C20.0807 11.3047 20.4258 11.6725 20.7578 12.1348C21.0898 12.5905 21.3405 12.9876 21.5098 13.3262C21.6855 13.6582 21.8939 14.0814 22.1348 14.5957C22.3366 14.5697 22.457 14.498 22.4961 14.3809C22.0143 12.4473 21.2852 11.1224 20.3086 10.4062C19.3385 9.68359 18.1016 9.32227 16.5977 9.32227ZM21.9004 15.0352C21.6204 14.4102 21.3633 13.8958 21.1289 13.4922C20.8945 13.082 20.5788 12.6263 20.1816 12.125C19.791 11.6172 19.3255 11.2233 18.7852 10.9434C18.2448 10.6634 17.6426 10.4941 16.9785 10.4355C16.2168 10.4811 15.5462 10.7122 14.9668 11.1289C14.3874 11.5391 13.9382 12.0664 13.6191 12.7109C13.3001 13.3555 13.0625 14.0293 12.9062 14.7324C12.75 15.429 12.6719 16.1452 12.6719 16.8809C12.6719 17.8965 12.8086 18.8665 13.082 19.791C13.3555 20.7155 13.834 21.5326 14.5176 22.2422C15.2077 22.9453 16.054 23.2969 17.0566 23.2969C17.9876 23.2969 18.694 23.0592 19.1758 22.584V18.7754C19.1758 18.554 18.4499 18.3685 16.998 18.2188C16.8223 17.763 16.8353 17.3431 17.0371 16.959C18.9837 17.0501 21.6758 17.0697 25.1133 17.0176C25.263 17.4082 25.2695 17.8086 25.1328 18.2188C23.681 18.3685 22.9551 18.554 22.9551 18.7754V20.2207C22.9551 21.4056 23.1406 22.4993 23.5117 23.502C22.5938 23.847 21.9102 24.0846 21.4609 24.2148C21.0182 24.3516 20.3737 24.4818 19.5273 24.6055C18.681 24.7357 17.7044 24.8008 16.5977 24.8008C15.9271 24.8008 15.2565 24.7292 14.5859 24.5859C13.9154 24.4492 13.2122 24.1953 12.4766 23.8242C11.7409 23.4466 11.0931 22.9746 10.5332 22.4082C9.97331 21.8418 9.51107 21.0833 9.14648 20.1328C8.7819 19.1758 8.59961 18.0918 8.59961 16.8809C8.59961 15.6699 8.77865 14.5892 9.13672 13.6387C9.49479 12.6816 9.95052 11.9167 10.5039 11.3438C11.0573 10.7708 11.6953 10.2956 12.418 9.91797C13.1471 9.53385 13.8438 9.27344 14.5078 9.13672C15.1784 8.99349 15.849 8.92188 16.5195 8.92188C17.6003 8.92188 18.7982 9.05859 20.1133 9.33203C21.4349 9.60547 22.2747 9.76172 22.6328 9.80078C22.4245 10.6406 22.3431 11.3796 22.3887 12.0176C22.4342 12.6491 22.6165 13.4238 22.9355 14.3418C22.7467 14.7259 22.4017 14.957 21.9004 15.0352Z" fill="white"/>
</svg>
