<svg width="47" height="63" viewBox="0 0 47 63" fill="none" xmlns="http://www.w3.org/2000/svg">
<g clip-path="url(#clip0_186_170)">
<path d="M15.0355 48.7016C15.0355 48.7016 12.6324 50.0991 16.7458 50.5719C21.7291 51.1404 24.2759 51.059 29.7677 50.0195C29.7677 50.0195 31.2116 50.9248 33.2277 51.709C20.9171 56.9852 5.3659 51.4033 15.0355 48.7016ZM13.5311 41.8164C13.5311 41.8164 10.8358 43.8116 14.9523 44.2374C20.2756 44.7865 24.4795 44.8315 31.754 43.4307C31.754 43.4307 32.7602 44.4508 34.3423 45.0086C19.4577 49.3611 2.87904 45.3519 13.5311 41.8164Z" fill="#5382A1"/>
<path d="M26.2127 30.1371C29.2462 33.6295 25.4158 36.7722 25.4158 36.7722C25.4158 36.7722 33.118 32.7961 29.5807 27.8169C26.277 23.1738 23.7434 20.8665 37.459 12.9121C37.459 12.9121 15.9301 18.2891 26.2127 30.1371Z" fill="#E76F00"/>
<path d="M42.4948 53.7943C42.4948 53.7943 44.2732 55.2595 40.5361 56.3932C33.4302 58.5459 10.9604 59.1959 4.71827 56.4789C2.47449 55.503 6.68238 54.1483 8.00592 53.8639C9.38628 53.5645 10.1752 53.6204 10.1752 53.6204C7.67982 51.8624 -5.95404 57.0721 3.24997 58.5639C28.3504 62.6345 49.0054 56.7311 42.4948 53.7943ZM16.1906 34.6827C16.1906 34.6827 4.76124 37.3976 12.1433 38.3832C15.2602 38.8005 21.4737 38.7062 27.2615 38.2211C31.9916 37.8224 36.7412 36.9739 36.7412 36.9739C36.7412 36.9739 35.0733 37.6882 33.8667 38.5121C22.2601 41.5647 -0.161681 40.1446 6.29327 37.0221C11.7522 34.3834 16.1906 34.6827 16.1906 34.6827ZM36.694 46.1433C48.4929 40.0123 43.0376 34.1205 39.2299 34.9144C38.2965 35.1085 37.8805 35.2767 37.8805 35.2767C37.8805 35.2767 38.227 34.7341 38.8887 34.4992C46.4214 31.8508 52.2146 42.3099 36.457 46.4523C36.457 46.4525 36.6396 46.2893 36.694 46.1433Z" fill="#5382A1"/>
<path d="M29.5807 0.0675649C29.5807 0.0675649 36.115 6.60427 23.3832 16.6553C13.1737 24.7182 21.0551 29.3154 23.379 34.5679C17.4195 29.191 13.0459 24.4577 15.9802 20.0524C20.2866 13.5854 32.217 10.4504 29.5807 0.0675649Z" fill="#E76F00"/>
<path d="M17.3498 62.7571C28.6751 63.4822 46.0662 62.3549 46.478 56.9961C46.478 56.9961 45.6863 59.0278 37.1183 60.641C27.452 62.46 15.5301 62.2477 8.45898 61.0818C8.45917 61.0818 9.90635 62.2799 17.3498 62.7571Z" fill="#5382A1"/>
</g>
<defs>
<clipPath id="clip0_186_170">
<rect width="46.62" height="63" fill="white"/>
</clipPath>
</defs>
</svg>
