<svg width="63" height="63" viewBox="0 0 63 63" fill="none" xmlns="http://www.w3.org/2000/svg">
<path d="M31.5 5.25C28.0528 5.25 24.6394 5.92898 21.4546 7.24816C18.2698 8.56735 15.376 10.5009 12.9384 12.9384C8.01562 17.8613 5.25 24.5381 5.25 31.5C5.25 43.1025 12.7837 52.9463 23.205 56.4375C24.5175 56.6475 24.9375 55.8338 24.9375 55.125V50.6887C17.6663 52.2637 16.1175 47.1712 16.1175 47.1712C14.91 44.1263 13.2038 43.3125 13.2038 43.3125C10.815 41.685 13.3875 41.7375 13.3875 41.7375C16.0125 41.9212 17.4038 44.4412 17.4038 44.4412C19.6875 48.4313 23.5462 47.25 25.0425 46.62C25.2787 44.9137 25.9613 43.7588 26.6963 43.1025C20.8688 42.4463 14.7525 40.1888 14.7525 30.1875C14.7525 27.2738 15.75 24.9375 17.4563 23.0737C17.1938 22.4175 16.275 19.6875 17.7188 16.1438C17.7188 16.1438 19.9237 15.435 24.9375 18.8212C27.0112 18.2437 29.2687 17.955 31.5 17.955C33.7313 17.955 35.9888 18.2437 38.0625 18.8212C43.0762 15.435 45.2812 16.1438 45.2812 16.1438C46.725 19.6875 45.8063 22.4175 45.5438 23.0737C47.25 24.9375 48.2475 27.2738 48.2475 30.1875C48.2475 40.215 42.105 42.42 36.2513 43.0762C37.1963 43.89 38.0625 45.4912 38.0625 47.9325V55.125C38.0625 55.8338 38.4825 56.6738 39.8213 56.4375C50.2425 52.92 57.75 43.1025 57.75 31.5C57.75 28.0528 57.071 24.6394 55.7518 21.4546C54.4327 18.2698 52.4991 15.376 50.0616 12.9384C47.624 10.5009 44.7302 8.56735 41.5454 7.24816C38.3606 5.92898 34.9472 5.25 31.5 5.25Z" fill="white"/>
</svg>
