<svg width="63" height="63" viewBox="0 0 63 63" fill="none" xmlns="http://www.w3.org/2000/svg">
<g clip-path="url(#clip0_186_782)">
<path d="M48.2344 0H14.7656C6.6108 0 0 6.6108 0 14.7656V48.2344C0 56.3892 6.6108 63 14.7656 63H48.2344C56.3892 63 63 56.3892 63 48.2344V14.7656C63 6.6108 56.3892 0 48.2344 0Z" fill="url(#paint0_linear_186_782)"/>
<g filter="url(#filter0_d_186_782)">
<path d="M32.477 48.273C39.7801 48.273 44.181 44.697 44.181 38.7991C44.181 34.3407 41.0411 31.1131 36.3783 30.602V30.4164C39.8039 29.859 42.492 26.6778 42.492 23.1252C42.492 18.063 38.4957 14.7656 32.4056 14.7656H18.7031V48.273H32.477ZM24.0318 19.0149H31.121C34.9748 19.0149 37.1634 20.7334 37.1634 23.845C37.1634 27.1656 34.618 29.0231 30.003 29.0231H24.0318V19.0149ZM24.0318 44.0237V32.994H31.0733C36.1167 32.994 38.7334 34.8516 38.7334 38.4741C38.7334 42.0963 36.1881 44.0237 31.3826 44.0237H24.0318Z" fill="url(#paint1_linear_186_782)"/>
<path d="M32.477 48.273C39.7801 48.273 44.181 44.697 44.181 38.7991C44.181 34.3407 41.0411 31.1131 36.3783 30.602V30.4164C39.8039 29.859 42.492 26.6778 42.492 23.1252C42.492 18.063 38.4957 14.7656 32.4056 14.7656H18.7031V48.273H32.477ZM24.0318 19.0149H31.121C34.9748 19.0149 37.1634 20.7334 37.1634 23.845C37.1634 27.1656 34.618 29.0231 30.003 29.0231H24.0318V19.0149ZM24.0318 44.0237V32.994H31.0733C36.1167 32.994 38.7334 34.8516 38.7334 38.4741C38.7334 42.0963 36.1881 44.0237 31.3826 44.0237H24.0318Z" stroke="white" stroke-width="0.625"/>
</g>
</g>
<defs>
<filter id="filter0_d_186_782" x="13.3906" y="10.7031" width="36.103" height="44.1323" filterUnits="userSpaceOnUse" color-interpolation-filters="sRGB">
<feFlood flood-opacity="0" result="BackgroundImageFix"/>
<feColorMatrix in="SourceAlpha" type="matrix" values="0 0 0 0 0 0 0 0 0 0 0 0 0 0 0 0 0 0 127 0" result="hardAlpha"/>
<feOffset dy="1.25"/>
<feGaussianBlur stdDeviation="2.5"/>
<feColorMatrix type="matrix" values="0 0 0 0 0 0 0 0 0 0 0 0 0 0 0 0 0 0 0.15 0"/>
<feBlend mode="normal" in2="BackgroundImageFix" result="effect1_dropShadow_186_782"/>
<feBlend mode="normal" in="SourceGraphic" in2="effect1_dropShadow_186_782" result="shape"/>
</filter>
<linearGradient id="paint0_linear_186_782" x1="0" y1="0" x2="63" y2="63" gradientUnits="userSpaceOnUse">
<stop stop-color="#9013FE"/>
<stop offset="1" stop-color="#6B11F4"/>
</linearGradient>
<linearGradient id="paint1_linear_186_782" x1="21.1131" y1="16.9711" x2="36.555" y2="43.0871" gradientUnits="userSpaceOnUse">
<stop stop-color="white"/>
<stop offset="1" stop-color="#F1E5FC"/>
</linearGradient>
<clipPath id="clip0_186_782">
<rect width="63" height="63" fill="white"/>
</clipPath>
</defs>
</svg>
