<svg width="63" height="63" viewBox="0 0 63 63" fill="none" xmlns="http://www.w3.org/2000/svg">
<g clip-path="url(#clip0_186_889)">
<path d="M48.2344 0H14.7656C6.6108 0 0 6.6108 0 14.7656V48.2344C0 56.3892 6.6108 63 14.7656 63H48.2344C56.3892 63 63 56.3892 63 48.2344V14.7656C63 6.6108 56.3892 0 48.2344 0Z" fill="#242938"/>
<path d="M31.5003 36.1637C34.0361 36.1637 36.0914 34.1081 36.0914 31.5726C36.0914 29.0371 34.0361 26.9814 31.5003 26.9814C28.9646 26.9814 26.9092 29.0371 26.9092 31.5726C26.9092 34.1081 28.9648 36.1637 31.5003 36.1637Z" fill="#00D8FF"/>
<path d="M31.5005 22.2378C37.6646 22.2378 43.391 23.1223 47.7087 24.6089C52.9109 26.3997 56.1094 29.1144 56.1094 31.5726C56.1094 34.1342 52.7197 37.0182 47.1331 38.8691C42.9096 40.2683 37.3519 40.9988 31.5005 40.9988C25.5012 40.9988 19.8201 40.3131 15.5489 38.8536C10.1452 37.0066 6.89062 34.0855 6.89062 31.5726C6.89062 29.1343 9.94465 26.4406 15.0737 24.6525C19.4074 23.1415 25.2751 22.2378 31.4995 22.2378H31.5005Z" stroke="#00D8FF" stroke-width="2.78469"/>
<path d="M23.3742 26.932C26.4538 21.5923 30.0805 17.0735 33.5253 14.0761C37.6754 10.4641 41.6253 9.0496 43.7545 10.2774C45.9735 11.5571 46.7785 15.9346 45.5911 21.6986C44.694 26.0562 42.5496 31.2354 39.6262 36.3045C36.6291 41.5015 33.1973 46.0803 29.7995 49.0502C25.5 52.8085 21.3432 54.1687 19.1665 52.9133C17.0543 51.6962 16.2466 47.7043 17.26 42.3677C18.1162 37.8586 20.2648 32.3242 23.3732 26.932H23.3742Z" stroke="#00D8FF" stroke-width="2.78469"/>
<path d="M23.3817 36.318C20.2935 30.9841 18.1909 25.5844 17.3133 21.103C16.2568 15.7034 17.0037 11.5752 19.1312 10.3438C21.3483 9.06015 25.5424 10.549 29.9431 14.4565C33.2703 17.4106 36.6868 21.8543 39.6185 26.9184C42.6243 32.1105 44.877 37.3708 45.7534 41.7975C46.8623 47.3996 45.9648 51.6799 43.79 52.9387C41.68 54.1603 37.8186 52.867 33.7012 49.3238C30.2224 46.3303 26.5005 41.705 23.3817 36.318Z" stroke="#00D8FF" stroke-width="2.78469"/>
</g>
<defs>
<clipPath id="clip0_186_889">
<rect width="63" height="63" fill="white"/>
</clipPath>
</defs>
</svg>
