<svg width="63" height="63" viewBox="0 0 63 63" fill="none" xmlns="http://www.w3.org/2000/svg">
<g clip-path="url(#clip0_186_1470)">
<path d="M48.2344 0H14.7656C6.6108 0 0 6.6108 0 14.7656V48.2344C0 56.3892 6.6108 63 14.7656 63H48.2344C56.3892 63 63 56.3892 63 48.2344V14.7656C63 6.6108 56.3892 0 48.2344 0Z" fill="#007ACC"/>
<path d="M13.9316 31.709L13.9116 34.289H22.1115V57.5889H27.9116V34.289H36.1115V31.7589C36.1115 30.3589 36.0817 29.189 36.0416 29.1589C36.0116 29.1191 31.0215 29.0989 24.9716 29.109L13.9616 29.139L13.9316 31.709ZM50.8348 29.0657C52.4346 29.4658 53.6548 30.1758 54.7748 31.3356C55.3548 31.9558 56.2146 33.0859 56.2848 33.3558C56.3047 33.4358 53.5647 35.2759 51.9048 36.3058C51.8448 36.3459 51.6046 36.0857 51.3346 35.6858C50.5247 34.5058 49.6747 33.9957 48.3746 33.9058C46.4647 33.7757 45.2347 34.7758 45.2448 36.4458C45.2448 36.9358 45.3147 37.2257 45.5147 37.6258C45.9346 38.4957 46.7147 39.0157 49.1648 40.0757C53.6747 42.0159 55.6046 43.2958 56.8048 45.1157C58.1448 47.1457 58.4448 50.3858 57.5347 52.7958C56.5348 55.4157 54.0547 57.1957 50.5646 57.7858C49.4847 57.9758 46.9246 57.9458 45.7648 57.7358C43.2347 57.2857 40.8348 56.0358 39.3548 54.3959C38.7747 53.7558 37.6447 52.0858 37.7148 51.9657C37.7446 51.9258 38.0047 51.7659 38.2946 51.5958C38.5746 51.4358 39.6348 50.8258 40.6347 50.2457L42.4447 49.1957L42.8247 49.7558C43.3548 50.5657 44.5146 51.6758 45.2147 52.0457C47.2246 53.1058 49.9848 52.9557 51.3447 51.7358C51.9247 51.2057 52.1647 50.6557 52.1647 49.8458C52.1647 49.1157 52.0746 48.7958 51.6946 48.2457C51.2047 47.5458 50.2048 46.9557 47.3646 45.7257C44.1147 44.3257 42.7147 43.4558 41.4347 42.0757C40.6947 41.2759 39.9946 39.9957 39.7047 38.9257C39.4648 38.0358 39.4047 35.8057 39.5947 34.9057C40.2646 31.7658 42.6347 29.5758 46.0547 28.9256C47.1648 28.7157 49.7446 28.7957 50.8348 29.0657Z" fill="white"/>
</g>
<defs>
<clipPath id="clip0_186_1470">
<rect width="63" height="63" fill="white"/>
</clipPath>
</defs>
</svg>
