<svg width="63" height="63" viewBox="0 0 63 63" fill="none" xmlns="http://www.w3.org/2000/svg">
<path d="M23.3096 57.4874C25.613 58.4127 28.1133 58.964 30.7514 59.0624C34.3149 59.1805 37.6814 58.4521 40.7133 57.0543C37.0908 55.6368 33.803 53.5499 31.0074 50.9512C29.1809 53.8675 26.4998 56.1499 23.3293 57.4874H23.3096Z" fill="#FF9100"/>
<path d="M30.9886 50.9514C24.5901 45.0452 20.7117 36.4811 21.0464 27.0902C21.0464 26.7949 21.0661 26.4799 21.0858 26.1845C18.2459 25.4599 15.2656 25.4939 12.4429 26.283C10.7301 29.2755 9.70638 32.7011 9.56857 36.3827C9.23388 45.872 14.9826 54.1605 23.3104 57.5073C26.4899 56.1844 29.1751 53.8986 30.9886 50.9711V50.9514Z" fill="#FFC400"/>
<path d="M30.9876 50.9516C32.5224 48.4942 33.3846 45.6767 33.488 42.7813C33.7636 34.8669 28.448 28.0747 21.0848 26.165C21.0848 26.4604 21.0455 26.7754 21.0455 27.0707C20.8808 31.53 21.6842 35.9721 23.4005 40.0913C25.1169 44.2104 27.7053 47.9088 30.9876 50.9319V50.9516Z" fill="#FF9100"/>
<path d="M32.6612 3.9375C28.4678 7.28438 25.1603 11.7141 23.1521 16.8131C21.9783 19.803 21.2808 22.9586 21.085 26.1647C24.7353 27.1083 27.9543 29.2695 30.2096 32.2909C32.4649 35.3123 33.6215 39.013 33.4881 42.7809C33.3969 45.6784 32.5337 48.499 30.9878 50.9512C33.817 53.5694 37.1082 55.639 40.6937 57.0544C47.9781 53.6878 53.1362 46.4625 53.4315 37.8984C53.6284 32.3466 51.5021 27.405 48.49 23.2313C45.3006 18.8212 32.6612 3.95719 32.6612 3.95719V3.9375Z" fill="#DD2C00"/>
</svg>
