<svg width="63" height="63" viewBox="0 0 63 63" fill="none" xmlns="http://www.w3.org/2000/svg">
<path d="M31.5002 59.0625C30.7565 59.0628 30.0258 58.8673 29.3818 58.4955L22.6408 54.5048C21.6348 53.9417 22.125 53.7429 22.4577 53.6267C23.5279 53.2967 24.5524 52.8337 25.5073 52.2486C25.5871 52.2111 25.6753 52.1948 25.7632 52.2013C25.8512 52.2079 25.9359 52.2371 26.0093 52.286L31.1891 55.3632C31.2855 55.4142 31.393 55.4409 31.5021 55.4409C31.6112 55.4409 31.7187 55.4142 31.8152 55.3632L52.0145 43.7042C52.1095 43.6481 52.188 43.5679 52.2422 43.4719C52.2965 43.3758 52.3245 43.2672 52.3236 43.1569V19.8351C52.3239 19.7232 52.2952 19.613 52.2403 19.5154C52.1855 19.4178 52.1064 19.336 52.0106 19.278L31.8112 7.62887C31.7162 7.57467 31.6086 7.54616 31.4992 7.54616C31.3897 7.54616 31.2822 7.57467 31.1871 7.62887L10.9996 19.2819C10.9033 19.3389 10.8233 19.4197 10.7674 19.5166C10.7116 19.6135 10.6817 19.7233 10.6806 19.8351V43.1471C10.6819 43.2568 10.7118 43.3643 10.7674 43.4589C10.823 43.5536 10.9024 43.632 10.9976 43.6865L16.5377 46.8838C19.54 48.384 21.3788 46.616 21.3788 44.8402V21.8236C21.3788 21.6669 21.441 21.5167 21.5518 21.4059C21.6626 21.2952 21.8128 21.2329 21.9694 21.2329H24.5288C24.6855 21.2329 24.8357 21.2952 24.9464 21.4059C25.0572 21.5167 25.1194 21.6669 25.1194 21.8236V44.8422C25.1194 48.8486 22.9381 51.1422 19.1384 51.1422C17.4993 51.1695 15.8861 50.7313 14.4862 49.8782L9.1765 46.8326C8.53244 46.4566 7.99802 45.9186 7.62638 45.272C7.25474 44.6254 7.05883 43.8929 7.05813 43.1471V19.8351C7.05581 19.088 7.25039 18.3534 7.62228 17.7053C7.99417 17.0573 8.53023 16.5187 9.1765 16.1437L29.3778 4.48084C30.0288 4.12553 30.7585 3.93933 31.5002 3.93933C32.2418 3.93933 32.9715 4.12553 33.6225 4.48084L53.8218 16.1437C54.4657 16.5191 55.0001 17.0564 55.3721 17.7022C55.7441 18.3481 55.9406 19.08 55.9422 19.8253V43.1471C55.9413 43.8931 55.7451 44.6258 55.3731 45.2724C55.0011 45.9189 54.4663 46.4569 53.8218 46.8326L33.6225 58.4955C32.9773 58.8679 32.2452 59.0635 31.5002 59.0625Z" fill="#83CD29"/>
<path d="M27.6689 35.3449C27.6689 35.1883 27.7312 35.0381 27.8419 34.9273C27.9527 34.8165 28.1029 34.7543 28.2596 34.7543H30.8721C31.0117 34.7548 31.1466 34.8046 31.2529 34.8951C31.3592 34.9855 31.4301 35.1107 31.4529 35.2485C31.8466 37.9082 33.0279 39.249 38.3691 39.249C42.6236 39.249 44.4368 38.2862 44.4368 36.0281C44.4368 34.7267 43.9229 33.7601 37.3099 33.1124C31.7817 32.5651 28.3639 31.3405 28.3639 26.9226C28.3639 22.8473 31.7994 20.4159 37.558 20.4159C44.0293 20.4159 47.2324 22.6622 47.638 27.4817C47.6442 27.5622 47.6338 27.6431 47.6075 27.7194C47.5813 27.7957 47.5396 27.8658 47.4852 27.9254C47.4308 27.985 47.3647 28.0328 47.2911 28.0658C47.2175 28.0989 47.1379 28.1165 47.0572 28.1176H44.4269C44.295 28.1158 44.1675 28.0698 44.0647 27.987C43.9619 27.9042 43.8898 27.7894 43.8599 27.6609C43.2319 24.8633 41.6943 23.9695 37.5599 23.9695C32.9137 23.9695 32.3743 25.5878 32.3743 26.8005C32.3743 28.2692 33.0121 28.6984 39.2846 29.5273C45.492 30.3482 48.4412 31.5098 48.4412 35.8726C48.4412 40.2747 44.7715 42.7947 38.3711 42.7947C29.5215 42.8065 27.6689 38.7489 27.6689 35.3449Z" fill="#83CD29"/>
</svg>
