<svg width="1512" height="269" viewBox="0 0 1512 269" fill="none" xmlns="http://www.w3.org/2000/svg">
<path fill-rule="evenodd" clip-rule="evenodd" d="M-4 28.2941L59.1186 41.2614C122.237 54.2288 248.474 80.1634 374.711 96.3726C500.948 112.582 627.186 119.065 753.423 102.856C879.66 86.6471 1005.9 47.7451 1132.13 31.5359C1258.37 15.3268 1384.61 21.8105 1447.73 25.0523L1510.85 28.2941V145H1447.73C1384.61 145 1258.37 145 1132.13 145C1005.9 145 879.66 145 753.423 145C627.186 145 500.948 145 374.711 145C248.474 145 122.237 145 59.1186 145H-4V28.2941Z" fill="#0C343D"/>
<path fill-rule="evenodd" clip-rule="evenodd" d="M1512 261.706L1448.83 248.739C1385.67 235.771 1259.33 209.837 1133 193.627C1006.67 177.418 880.333 170.935 754 187.144C627.667 203.353 501.333 242.255 375 258.464C248.667 274.673 122.333 268.19 59.1666 264.948L-4 261.706V145H59.1666C122.333 145 248.667 145 375 145C501.333 145 627.667 145 754 145C880.333 145 1006.67 145 1133 145C1259.33 145 1385.67 145 1448.83 145H1512V261.706Z" fill="#0C343D"/>
<path fill-rule="evenodd" clip-rule="evenodd" d="M-2.8457 27.6L123.391 20.7C249.629 13.8 502.103 0 754.577 0C1007.05 0 1259.53 13.8 1385.76 20.7L1512 27.6V69H1385.76C1259.53 69 1007.05 69 754.577 69C502.103 69 249.629 69 123.391 69H-2.8457V27.6Z" fill="#297A8B"/>
<path fill-rule="evenodd" clip-rule="evenodd" d="M-2.8457 54.1978L81.7332 58.8512C165.05 63.5047 334.207 72.8117 502.103 65.8315C669.998 58.8512 839.156 35.5838 1007.05 30.9304C1174.95 26.2769 1344.1 40.2373 1427.42 47.2175L1512 54.1978V124H1427.42C1344.1 124 1174.95 124 1007.05 124C839.156 124 669.998 124 502.103 124C334.207 124 165.05 124 81.7332 124H-2.8457V54.1978Z" fill="#1D6677"/>
<path fill-rule="evenodd" clip-rule="evenodd" d="M-2.8457 81L123.391 89.8889C249.629 98.7778 502.103 116.556 754.577 120.111C1007.05 123.667 1259.53 113 1385.76 107.667L1512 102.333V177H1385.76C1259.53 177 1007.05 177 754.577 177C502.103 177 249.629 177 123.391 177H-2.8457V81Z" fill="#14404A"/>
</svg>
