<svg width="1512" height="298" viewBox="0 0 1512 298" fill="none" xmlns="http://www.w3.org/2000/svg">
<path fill-rule="evenodd" clip-rule="evenodd" d="M0 41.6L126.64 31.2C253.28 20.8 506.561 0 759.841 0C1013.12 0 1266.4 20.8 1393.04 31.2L1519.68 41.6V104H1393.04C1266.4 104 1013.12 104 759.841 104C506.561 104 253.28 104 126.64 104H0V41.6Z" fill="#297A8B"/>
<path fill-rule="evenodd" clip-rule="evenodd" d="M1.15918 70L64.5276 72.7778C127.896 75.5556 254.633 81.1111 381.369 83.8889C508.106 86.6667 634.843 86.6667 761.58 86.6667C888.316 86.6667 1015.05 86.6667 1141.79 100.556C1268.53 114.444 1395.26 142.222 1458.63 156.111L1522 170H1458.63C1395.26 170 1268.53 170 1141.79 170C1015.05 170 888.316 170 761.58 170C634.843 170 508.106 170 381.369 170C254.633 170 127.896 170 64.5276 170H1.15918V70Z" fill="#1D6677"/>
<path fill-rule="evenodd" clip-rule="evenodd" d="M0 87.0588L63.3201 97.8301C126.64 108.601 253.28 130.144 379.92 143.608C506.561 157.072 633.201 162.458 759.841 148.993C886.481 135.529 1013.12 103.216 1139.76 89.7516C1266.4 76.2876 1393.04 81.6732 1456.36 84.366L1519.68 87.0588V184H1456.36C1393.04 184 1266.4 184 1139.76 184C1013.12 184 886.481 184 759.841 184C633.201 184 506.561 184 379.92 184C253.28 184 126.64 184 63.3201 184H0V87.0588Z" fill="#14404A"/>
<path fill-rule="evenodd" clip-rule="evenodd" d="M1519.68 196.571L1434.83 213.476C1351.25 230.381 1181.55 264.19 1013.12 260.81C844.69 257.429 674.992 216.857 506.561 216.857C338.129 216.857 168.431 257.429 84.849 277.714L0 298V156L84.849 156C168.431 156 338.129 156 506.561 156C674.992 156 844.69 156 1013.12 156C1181.55 156 1351.25 156 1434.83 156H1519.68V196.571Z" fill="#205966"/>
</svg>
