<svg width="1512" height="233" viewBox="0 0 1512 233" fill="none" xmlns="http://www.w3.org/2000/svg">
<path fill-rule="evenodd" clip-rule="evenodd" d="M-52 72.0699L-28.54 64.0873C-5.08 56.1048 43.1433 40.1397 90.0633 42.8006C136.983 45.4614 185.207 66.7482 232.127 56.1048C280.35 45.4614 327.27 2.88788 374.19 0.22703C422.413 -2.43382 469.333 34.818 516.253 42.8006C564.477 50.7831 611.397 29.4963 658.317 29.4963C706.54 29.4963 753.46 50.7831 801.683 56.1048C848.603 61.4265 895.523 50.7831 943.747 34.818C990.667 18.8529 1037.59 -2.43382 1085.81 0.22703C1132.73 2.88788 1179.65 29.4963 1227.87 45.4614C1274.79 61.4265 1323.02 66.7482 1369.94 58.7656C1416.86 50.7831 1465.08 29.4963 1488.54 18.8529L1512 8.20957V104H1488.54C1465.08 104 1416.86 104 1369.94 104C1323.02 104 1274.79 104 1227.87 104C1179.65 104 1132.73 104 1085.81 104C1037.59 104 990.667 104 943.747 104C895.523 104 848.603 104 801.683 104C753.46 104 706.54 104 658.317 104C611.397 104 564.477 104 516.253 104C469.333 104 422.413 104 374.19 104C327.27 104 280.35 104 232.127 104C185.207 104 136.983 104 90.0633 104C43.1433 104 -5.08 104 -28.54 104H-52V72.0699Z" fill="#1D6677"/>
<path fill-rule="evenodd" clip-rule="evenodd" d="M1512 150.357L1486.8 163.234C1461.6 176.11 1411.2 201.864 1360.8 194.138C1310.4 186.412 1260 145.206 1209.6 150.357C1159.2 155.507 1108.8 207.015 1058.4 225.043C1008 243.07 957.6 227.618 907.2 207.015C856.8 186.412 806.4 160.658 756 160.658C705.6 160.658 655.2 186.412 604.8 186.412C554.4 186.412 504 160.658 453.6 152.932C403.2 145.206 352.8 155.507 302.4 168.384C252 181.261 201.6 196.713 151.2 204.44C100.8 212.166 50.4 212.166 25.2 212.166H0V104L25.2 104C50.4 104 100.8 104 151.2 104C201.6 104 252 104 302.4 104C352.8 104 403.2 104 453.6 104C504 104 554.4 104 604.8 104C655.2 104 705.6 104 756 104C806.4 104 856.8 104 907.2 104C957.6 104 1008 104 1058.4 104C1108.8 104 1159.2 104 1209.6 104C1260 104 1310.4 104 1360.8 104C1411.2 104 1461.6 104 1486.8 104H1512V150.357Z" fill="#205966"/>
</svg>
