<svg width="1512" height="269" viewBox="0 0 1512 269" fill="none" xmlns="http://www.w3.org/2000/svg">
<path fill-rule="evenodd" clip-rule="evenodd" d="M0 28.2941L63.3683 41.2614C126.737 54.2288 253.473 80.1634 380.21 96.3726C506.947 112.582 633.683 119.065 760.42 102.856C887.157 86.6471 1013.89 47.7451 1140.63 31.5359C1267.37 15.3268 1394.1 21.8105 1457.47 25.0523L1520.84 28.2941V145H1457.47C1394.1 145 1267.37 145 1140.63 145C1013.89 145 887.157 145 760.42 145C633.683 145 506.947 145 380.21 145C253.473 145 126.737 145 63.3683 145H0V28.2941Z" fill="#205966"/>
<path fill-rule="evenodd" clip-rule="evenodd" d="M1522 261.706L1458.58 248.739C1395.17 235.771 1268.33 209.837 1141.5 193.627C1014.67 177.418 887.833 170.935 761 187.144C634.167 203.353 507.333 242.255 380.5 258.464C253.667 274.673 126.833 268.19 63.4166 264.948L-0.00012207 261.706V145H63.4166C126.833 145 253.667 145 380.5 145C507.333 145 634.167 145 761 145C887.833 145 1014.67 145 1141.5 145C1268.33 145 1395.17 145 1458.58 145H1522V261.706Z" fill="#205966"/>
<path fill-rule="evenodd" clip-rule="evenodd" d="M1.16016 27.6L127.897 20.7C254.634 13.8 508.107 0 761.58 0C1015.05 0 1268.53 13.8 1395.26 20.7L1522 27.6V69H1395.26C1268.53 69 1015.05 69 761.58 69C508.107 69 254.634 69 127.897 69H1.16016V27.6Z" fill="#297A8B"/>
<path fill-rule="evenodd" clip-rule="evenodd" d="M1.16016 54.1978L86.0737 58.8512C169.72 63.5047 339.547 72.8117 508.107 65.8315C676.667 58.8512 846.494 35.5838 1015.05 30.9304C1183.61 26.2769 1353.44 40.2373 1437.09 47.2175L1522 54.1978V124H1437.09C1353.44 124 1183.61 124 1015.05 124C846.494 124 676.667 124 508.107 124C339.547 124 169.72 124 86.0737 124H1.16016V54.1978Z" fill="#1D6677"/>
<path fill-rule="evenodd" clip-rule="evenodd" d="M1.16016 81L127.897 89.8889C254.634 98.7778 508.107 116.556 761.58 120.111C1015.05 123.667 1268.53 113 1395.26 107.667L1522 102.333V177H1395.26C1268.53 177 1015.05 177 761.58 177C508.107 177 254.634 177 127.897 177H1.16016V81Z" fill="#14404A"/>
</svg>
